HIERARCHY
ROOT Hips
{
	OFFSET 0.000000 97.167313 0.000000
	CHANNELS 6 Xposition Yposition Zposition Xrotation Yrotation Zrotation
	JOINT Spine
	{
		OFFSET 0.000000 13.784798 0.064400
		CHANNELS 3 Xrotation Yrotation Zrotation
		JOINT Spine1
		{
			OFFSET 0.000000 12.037903 0.404700
			CHANNELS 3 Xrotation Yrotation Zrotation
			JOINT Spine2
			{
				OFFSET 0.000000 17.795601 0.420200
				CHANNELS 3 Xrotation Yrotation Zrotation
				JOINT Neck
				{
					OFFSET 0.000000 39.131302 11.954600
					CHANNELS 3 Xrotation Yrotation Zrotation
					JOINT Head
					{
						OFFSET 0.000000 14.456192 15.627699
						CHANNELS 3 Xrotation Yrotation Zrotation
						JOINT HeadTop_End
						{
							OFFSET 0.000000 15.703506 7.603401
							CHANNELS 3 Xrotation Yrotation Zrotation
							End Site
							{
								OFFSET 0.000000 17.447403 0.000000
							}
						}
					}
				}
				JOINT LeftShoulder
				{
					OFFSET 17.399500 24.608795 1.168800
					CHANNELS 3 Xrotation Yrotation Zrotation
					JOINT LeftArm
					{
						OFFSET 18.980635 5.765305 1.818600
						CHANNELS 3 Xrotation Yrotation Zrotation
						JOINT LeftForeArm
						{
							OFFSET 49.290169 0.000000 0.000000
							CHANNELS 3 Xrotation Yrotation Zrotation
							JOINT LeftHand
							{
								OFFSET 31.562012 0.000000 0.000000
								CHANNELS 3 Xrotation Yrotation Zrotation
								JOINT LeftHandThumb1
								{
									OFFSET 6.133995 -4.388519 7.076070
									CHANNELS 3 Xrotation Yrotation Zrotation
									JOINT LeftHandThumb2
									{
										OFFSET 6.037666 -3.485840 3.485847
										CHANNELS 3 Xrotation Yrotation Zrotation
										JOINT LeftHandThumb3
										{
											OFFSET 6.496506 -3.750763 3.750761
											CHANNELS 3 Xrotation Yrotation Zrotation
											JOINT LeftHandThumb4
											{
												OFFSET 5.616882 -3.242905 3.242910
												CHANNELS 3 Xrotation Yrotation Zrotation
												End Site
												{
													OFFSET -1.254608 7.132141 0.375429
												}
											}
										}
									}
								}
								JOINT LeftHandPinky1
								{
									OFFSET 18.920792 -0.453171 -11.426712
									CHANNELS 3 Xrotation Yrotation Zrotation
									JOINT LeftHandPinky2
									{
										OFFSET 4.919586 0.000000 0.000000
										CHANNELS 3 Xrotation Yrotation Zrotation
										JOINT LeftHandPinky3
										{
											OFFSET 5.233047 0.000000 0.000000
											CHANNELS 3 Xrotation Yrotation Zrotation
											JOINT LeftHandPinky4
											{
												OFFSET 5.571716 0.000000 0.000000
												CHANNELS 3 Xrotation Yrotation Zrotation
												End Site
												{
													OFFSET -3.459808 4.342407 -0.466164
												}
											}
										}
									}
								}
								JOINT LeftHandRing1
								{
									OFFSET 22.726120 -0.094986 -6.500475
									CHANNELS 3 Xrotation Yrotation Zrotation
									JOINT LeftHandRing2
									{
										OFFSET 6.408615 0.000000 0.000000
										CHANNELS 3 Xrotation Yrotation Zrotation
										JOINT LeftHandRing3
										{
											OFFSET 6.150223 0.000000 0.000000
											CHANNELS 3 Xrotation Yrotation Zrotation
											JOINT LeftHandRing4
											{
												OFFSET 6.145386 0.000000 0.000000
												CHANNELS 3 Xrotation Yrotation Zrotation
												End Site
												{
													OFFSET -3.671402 4.923981 -0.202372
												}
											}
										}
									}
								}
								JOINT LeftHandMiddle1
								{
									OFFSET 23.373947 0.000000 0.000001
									CHANNELS 3 Xrotation Yrotation Zrotation
									JOINT LeftHandMiddle2
									{
										OFFSET 6.996567 0.000000 0.000000
										CHANNELS 3 Xrotation Yrotation Zrotation
										JOINT LeftHandMiddle3
										{
											OFFSET 7.015945 0.000000 0.000000
											CHANNELS 3 Xrotation Yrotation Zrotation
											JOINT LeftHandMiddle4
											{
												OFFSET 7.721573 0.000000 0.000000
												CHANNELS 3 Xrotation Yrotation Zrotation
												End Site
												{
													OFFSET -4.651108 6.158463 0.251582
												}
											}
										}
									}
								}
								JOINT LeftHandIndex1
								{
									OFFSET 21.310577 -0.490082 6.209344
									CHANNELS 3 Xrotation Yrotation Zrotation
									JOINT LeftHandIndex2
									{
										OFFSET 7.536453 0.000000 0.000000
										CHANNELS 3 Xrotation Yrotation Zrotation
										JOINT LeftHandIndex3
										{
											OFFSET 7.512344 0.000000 0.000000
											CHANNELS 3 Xrotation Yrotation Zrotation
											JOINT LeftHandIndex4
											{
												OFFSET 10.212402 0.000000 0.000001
												CHANNELS 3 Xrotation Yrotation Zrotation
												End Site
												{
													OFFSET -5.180801 8.690506 1.388433
												}
											}
										}
									}
								}
							}
						}
					}
				}
				JOINT RightShoulder
				{
					OFFSET -17.399500 24.608795 1.168800
					CHANNELS 3 Xrotation Yrotation Zrotation
					JOINT RightArm
					{
						OFFSET -18.980635 5.765305 1.818600
						CHANNELS 3 Xrotation Yrotation Zrotation
						JOINT RightForeArm
						{
							OFFSET -49.290169 0.000000 0.000000
							CHANNELS 3 Xrotation Yrotation Zrotation
							JOINT RightHand
							{
								OFFSET -31.562012 0.000000 0.000000
								CHANNELS 3 Xrotation Yrotation Zrotation
								JOINT RightHandThumb1
								{
									OFFSET -6.133995 -4.388519 7.076070
									CHANNELS 3 Xrotation Yrotation Zrotation
									JOINT RightHandThumb2
									{
										OFFSET -6.037666 -3.485840 3.485847
										CHANNELS 3 Xrotation Yrotation Zrotation
										JOINT RightHandThumb3
										{
											OFFSET -6.496506 -3.750763 3.750761
											CHANNELS 3 Xrotation Yrotation Zrotation
											JOINT RightHandThumb4
											{
												OFFSET -5.616882 -3.242905 3.242910
												CHANNELS 3 Xrotation Yrotation Zrotation
												End Site
												{
													OFFSET 1.254608 7.132141 0.375429
												}
											}
										}
									}
								}
								JOINT RightHandIndex1
								{
									OFFSET -21.310577 -0.490082 6.209344
									CHANNELS 3 Xrotation Yrotation Zrotation
									JOINT RightHandIndex2
									{
										OFFSET -7.536453 0.000000 0.000000
										CHANNELS 3 Xrotation Yrotation Zrotation
										JOINT RightHandIndex3
										{
											OFFSET -7.512344 0.000000 0.000000
											CHANNELS 3 Xrotation Yrotation Zrotation
											JOINT RightHandIndex4
											{
												OFFSET -10.212402 0.000000 0.000001
												CHANNELS 3 Xrotation Yrotation Zrotation
												End Site
												{
													OFFSET 5.180801 8.690506 1.388433
												}
											}
										}
									}
								}
								JOINT RightHandMiddle1
								{
									OFFSET -23.373947 0.000000 0.000001
									CHANNELS 3 Xrotation Yrotation Zrotation
									JOINT RightHandMiddle2
									{
										OFFSET -6.996567 0.000000 0.000000
										CHANNELS 3 Xrotation Yrotation Zrotation
										JOINT RightHandMiddle3
										{
											OFFSET -7.015945 0.000000 0.000000
											CHANNELS 3 Xrotation Yrotation Zrotation
											JOINT RightHandMiddle4
											{
												OFFSET -7.721573 0.000000 0.000000
												CHANNELS 3 Xrotation Yrotation Zrotation
												End Site
												{
													OFFSET 4.651108 6.158463 0.251582
												}
											}
										}
									}
								}
								JOINT RightHandRing1
								{
									OFFSET -22.726120 -0.094986 -6.500475
									CHANNELS 3 Xrotation Yrotation Zrotation
									JOINT RightHandRing2
									{
										OFFSET -6.408615 0.000000 0.000000
										CHANNELS 3 Xrotation Yrotation Zrotation
										JOINT RightHandRing3
										{
											OFFSET -6.150223 0.000000 0.000000
											CHANNELS 3 Xrotation Yrotation Zrotation
											JOINT RightHandRing4
											{
												OFFSET -6.145386 0.000000 0.000000
												CHANNELS 3 Xrotation Yrotation Zrotation
												End Site
												{
													OFFSET 3.671402 4.923981 -0.202372
												}
											}
										}
									}
								}
								JOINT RightHandPinky1
								{
									OFFSET -18.920792 -0.453171 -11.426712
									CHANNELS 3 Xrotation Yrotation Zrotation
									JOINT RightHandPinky2
									{
										OFFSET -4.919586 0.000000 0.000000
										CHANNELS 3 Xrotation Yrotation Zrotation
										JOINT RightHandPinky3
										{
											OFFSET -5.233047 0.000000 0.000000
											CHANNELS 3 Xrotation Yrotation Zrotation
											JOINT RightHandPinky4
											{
												OFFSET -5.571716 0.000000 0.000000
												CHANNELS 3 Xrotation Yrotation Zrotation
												End Site
												{
													OFFSET 3.459808 4.342407 -0.466164
												}
											}
										}
									}
								}
							}
						}
					}
				}
			}
		}
	}
	JOINT LeftUpLeg
	{
		OFFSET 19.899099 -7.885101 -3.429500
		CHANNELS 3 Xrotation Yrotation Zrotation
		JOINT LeftLeg
		{
			OFFSET 1.745560 -36.997807 10.304700
			CHANNELS 3 Xrotation Yrotation Zrotation
			JOINT LeftFoot
			{
				OFFSET -1.745558 -29.803308 -13.615400
				CHANNELS 3 Xrotation Yrotation Zrotation
				JOINT LeftToeBase
				{
					OFFSET 1.181900 -18.539904 15.226099
					CHANNELS 3 Xrotation Yrotation Zrotation
					JOINT LeftToe_End
					{
						OFFSET -0.863701 1.402801 16.534700
						CHANNELS 3 Xrotation Yrotation Zrotation
						End Site
						{
							OFFSET 0.000000 16.616566 0.000000
						}
					}
				}
			}
		}
	}
	JOINT RightUpLeg
	{
		OFFSET -19.899099 -7.885101 -3.429500
		CHANNELS 3 Xrotation Yrotation Zrotation
		JOINT RightLeg
		{
			OFFSET -1.745560 -36.997807 10.304700
			CHANNELS 3 Xrotation Yrotation Zrotation
			JOINT RightFoot
			{
				OFFSET 1.745558 -29.803308 -13.615400
				CHANNELS 3 Xrotation Yrotation Zrotation
				JOINT RightToeBase
				{
					OFFSET -1.181900 -18.539904 15.226099
					CHANNELS 3 Xrotation Yrotation Zrotation
					JOINT RightToe_End
					{
						OFFSET 0.863701 1.402801 16.534700
						CHANNELS 3 Xrotation Yrotation Zrotation
						End Site
						{
							OFFSET 0.000000 16.616566 0.000000
						}
					}
				}
			}
		}
	}
}
MOTION
Frames: 5
Frame Time: 0.033333
7.362679 68.962364 20.086651 -5.196006 -46.352287 -4.515331 14.532030 7.174393 -5.100399 1.647031 0.963322 -0.172333 1.649498 0.986147 -0.163867 -1.528210 12.395891 7.419346 4.102781 20.652325 -1.412538 0.000001 0.000000 0.000000 1.176052 2.599843 -8.148932 -57.057095 2.888174 -50.872861 -0.000006 -111.412161 -0.000035 -4.211825 -8.616381 -13.355356 -6.141227 -11.690805 -6.761714 9.914164 42.595512 3.409848 -0.422809 8.108070 27.509087 -0.000001 -0.000000 -0.000002 -3.762446 9.063686 -45.253832 5.342533 5.828999 -85.005317 8.716846 5.103344 -119.369181 0.000001 -0.000001 -0.000002 0.469719 4.966826 -39.799444 8.181045 5.368597 -113.502998 3.200493 5.218120 -63.022982 -0.000001 0.000001 0.000002 -0.461477 3.841588 -39.722686 6.450757 5.820355 -95.892857 2.182892 4.561567 -51.127736 -0.000000 0.000001 0.000009 0.255313 3.378205 -45.814344 5.654100 5.847762 -88.067441 2.162142 4.544802 -50.866359 -0.000000 0.000001 0.000001 2.445570 13.092295 -6.174253 -46.218722 24.538964 84.187798 0.000057 110.362941 -0.000034 -8.496159 19.430063 8.307564 -7.341101 13.749659 7.412336 9.855817 -44.489089 -3.903221 -0.115790 -14.513073 -28.973874 0.000001 -0.000003 0.000002 -0.124379 -2.384771 45.108881 4.500589 -4.654552 88.071137 1.723226 -3.618369 50.920102 -0.000000 0.000000 0.000002 -0.761631 -2.932905 39.031061 5.133886 -4.632757 95.881663 1.739739 -3.631705 51.181377 -0.000001 -0.000001 -0.000006 0.154762 -4.068822 39.122671 6.509735 -4.273580 113.462863 2.549591 -4.153918 63.067358 -0.000002 -0.000003 -0.000000 -4.198886 -8.025510 44.637800 4.252906 -4.639642 85.014832 6.935982 -4.062643 119.322285 0.000002 -0.000000 0.000002 -45.483025 -3.593241 29.907834 58.419148 -13.586559 0.383316 -10.753827 -3.502195 -19.626166 0.000005 -0.000020 0.000000 0.000000 0.000000 0.000000 -14.831008 -11.724449 -43.936773 52.550359 2.677880 -5.586916 -18.691438 -10.275419 25.146193 -3.587103 -0.007503 1.012714 -0.000000 -0.000000 -0.000001 
6.780150 68.267944 17.637457 -4.425140 -47.413804 -3.137094 13.535940 7.781006 -5.798183 1.861060 1.044518 -0.418522 1.864288 1.062713 -0.406590 -1.570910 12.545490 7.189846 4.086067 20.687296 -1.105016 0.000001 0.000000 -0.000000 1.214962 2.997979 -8.469633 -55.329488 3.360452 -51.244577 0.000075 -113.828593 0.000070 -5.407419 -6.399660 -12.819607 -6.141228 -11.690803 -6.761715 9.914161 42.595505 3.409843 -0.422811 8.108071 27.509087 -0.000001 0.000004 -0.000001 -3.762444 9.063688 -45.253832 5.342536 5.829003 -85.005311 8.716845 5.103339 -119.369181 0.000002 -0.000001 -0.000002 0.469721 4.966827 -39.799444 8.181045 5.368596 -113.502998 3.200490 5.218118 -63.022982 0.000001 0.000001 0.000003 -0.461477 3.841590 -39.722686 6.450760 5.820353 -95.892857 2.182895 4.561568 -51.127743 0.000001 0.000001 0.000002 0.255313 3.378207 -45.814348 5.654099 5.847762 -88.067435 2.162142 4.544807 -50.866359 -0.000001 0.000001 -0.000003 2.353834 13.195707 -6.349442 -46.100748 24.318976 85.711347 0.000002 110.139573 0.000008 -9.173841 19.213460 9.163252 -7.341104 13.749658 7.412330 9.855814 -44.489083 -3.903221 -0.115793 -14.513071 -28.973874 -0.000000 0.000000 0.000001 -0.124378 -2.384767 45.108874 4.500593 -4.654553 88.071137 1.723224 -3.618372 50.920102 -0.000001 -0.000001 0.000001 -0.761631 -2.932903 39.031058 5.133887 -4.632760 95.881656 1.739739 -3.631700 51.181377 0.000000 0.000000 -0.000006 0.154763 -4.068815 39.122671 6.509734 -4.273579 113.462863 2.549590 -4.153922 63.067358 -0.000001 -0.000003 -0.000002 -4.198886 -8.025506 44.637793 4.252910 -4.639641 85.014832 6.935984 -4.062643 119.322285 -0.000002 0.000002 0.000004 -45.971572 -3.876072 31.262732 56.202010 -13.820937 0.479285 -8.474548 -3.083328 -22.164213 -0.000033 -0.000022 -0.000006 0.000000 -0.000000 0.000000 -11.852396 -11.245255 -44.373147 50.872485 3.948805 -3.232538 -21.599631 -16.334869 31.428955 -2.354574 -0.000039 0.000001 0.000000 -0.000000 -0.000000 
5.981886 67.508156 14.893552 -3.899258 -47.917984 -1.754093 13.100139 8.335633 -5.813501 2.095712 1.113748 -0.988747 2.105635 1.117379 -0.973025 -1.628793 12.724496 6.776198 3.979657 20.634094 -0.868209 -0.000001 0.000000 -0.000000 1.254598 3.429150 -8.848096 -53.265848 3.935783 -51.260310 -0.000034 -115.112743 -0.000059 -6.441508 -5.279057 -13.482061 -6.141231 -11.690805 -6.761714 9.914166 42.595512 3.409843 -0.422808 8.108074 27.509085 -0.000001 0.000002 0.000000 -3.762446 9.063687 -45.253832 5.342536 5.829002 -85.005317 8.716850 5.103350 -119.369181 0.000003 0.000002 0.000001 0.469718 4.966825 -39.799447 8.181043 5.368600 -113.502991 3.200493 5.218119 -63.022975 -0.000000 0.000001 0.000005 -0.461478 3.841589 -39.722690 6.450755 5.820353 -95.892851 2.182892 4.561568 -51.127743 0.000001 -0.000001 0.000008 0.255311 3.378206 -45.814344 5.654099 5.847763 -88.067441 2.162143 4.544804 -50.866359 -0.000001 0.000000 -0.000004 2.082981 13.364238 -6.798814 -45.495941 24.139678 86.706683 -0.000006 109.838840 0.000030 -9.317930 18.918606 10.337687 -7.341101 13.749656 7.412338 9.855810 -44.489086 -3.903223 -0.115788 -14.513071 -28.973874 0.000001 -0.000003 0.000004 -0.124380 -2.384766 45.108874 4.500584 -4.654555 88.071137 1.723225 -3.618368 50.920092 -0.000000 -0.000001 0.000001 -0.761628 -2.932902 39.031058 5.133890 -4.632755 95.881663 1.739738 -3.631700 51.181384 -0.000001 0.000001 -0.000002 0.154764 -4.068818 39.122685 6.509730 -4.273579 113.462857 2.549590 -4.153922 63.067358 -0.000001 0.000001 -0.000003 -4.198884 -8.025509 44.637796 4.252915 -4.639647 85.014832 6.935990 -4.062649 119.322285 -0.000000 -0.000002 0.000002 -46.218340 -4.328733 32.317426 53.059406 -14.331229 0.617879 -5.438510 -2.701773 -25.049449 0.000010 -0.000022 -0.000013 -0.000000 0.000000 -0.000000 -11.549337 -9.798629 -45.331907 51.992698 4.300367 -2.663459 -23.033706 -17.698490 36.997499 0.044063 0.000014 -0.000013 0.000000 -0.000000 0.000000 
5.358440 67.398926 12.829832 -3.974893 -47.734993 -1.028588 12.944458 8.614202 -4.668225 2.401310 1.157212 -1.703396 2.422000 1.140050 -1.683121 -1.569144 12.866458 6.211678 4.183878 20.375057 -1.057148 0.000001 0.000000 -0.000001 1.338747 3.753157 -9.281647 -51.134426 4.504958 -51.348413 -0.000058 -114.742725 -0.000074 -6.802984 -5.046188 -14.336328 -6.141228 -11.690801 -6.761709 9.914165 42.595512 3.409850 -0.422803 8.108074 27.509085 0.000000 -0.000000 0.000000 -3.762445 9.063685 -45.253832 5.342537 5.829000 -85.005311 8.716846 5.103344 -119.369181 0.000006 0.000000 -0.000002 0.469722 4.966819 -39.799447 8.181043 5.368597 -113.502998 3.200494 5.218116 -63.022982 -0.000000 -0.000002 -0.000000 -0.461473 3.841587 -39.722686 6.450756 5.820353 -95.892864 2.182892 4.561567 -51.127743 0.000001 0.000000 0.000004 0.255313 3.378204 -45.814344 5.654102 5.847763 -88.067441 2.162144 4.544801 -50.866355 0.000001 0.000001 0.000001 1.774835 13.535625 -7.291501 -44.963091 24.062203 86.835753 0.000042 109.310819 -0.000019 -8.952044 18.514338 11.015012 -7.341104 13.749657 7.412333 9.855810 -44.489086 -3.903219 -0.115793 -14.513069 -28.973871 -0.000001 0.000000 -0.000000 -0.124379 -2.384766 45.108881 4.500592 -4.654552 88.071137 1.723225 -3.618367 50.920102 -0.000000 -0.000004 -0.000004 -0.761631 -2.932906 39.031058 5.133890 -4.632761 95.881663 1.739739 -3.631700 51.181374 -0.000001 0.000002 -0.000008 0.154763 -4.068815 39.122678 6.509732 -4.273579 113.462857 2.549590 -4.153923 63.067364 -0.000002 -0.000001 -0.000007 -4.198885 -8.025507 44.637796 4.252907 -4.639639 85.014832 6.935988 -4.062646 119.322285 -0.000001 0.000001 -0.000001 -45.837714 -4.102941 32.551927 50.655654 -15.223681 0.981950 -5.245540 -1.869551 -26.817233 2.317129 -0.000006 -0.000001 -0.000000 0.000003 -0.000000 -13.059287 -9.437451 -46.080954 54.754543 4.536301 -1.824477 -25.822252 -16.338941 35.435814 0.044074 0.000030 -0.000003 0.000000 0.000000 -0.000000 
4.823842 67.965408 11.035244 -4.007257 -47.373147 -0.341646 12.465042 8.694654 -3.637900 2.783437 1.172168 -2.241872 2.812931 1.140218 -2.215010 -1.364152 12.965898 5.719705 4.737421 20.165758 -1.546474 -0.000001 -0.000000 -0.000000 1.394011 3.974662 -9.595482 -49.813263 4.802250 -51.693283 0.000026 -113.332612 0.000021 -5.889151 -4.638486 -14.847284 -6.141230 -11.690799 -6.761715 9.914159 42.595515 3.409847 -0.422808 8.108077 27.509087 0.000000 -0.000000 0.000002 -3.762447 9.063689 -45.253832 5.342536 5.829000 -85.005317 8.716849 5.103345 -119.369181 -0.000000 0.000000 -0.000002 0.469724 4.966823 -39.799441 8.181041 5.368598 -113.502991 3.200495 5.218115 -63.022982 -0.000000 -0.000002 -0.000000 -0.461475 3.841592 -39.722686 6.450759 5.820353 -95.892857 2.182892 4.561566 -51.127743 0.000002 0.000000 0.000008 0.255313 3.378205 -45.814344 5.654105 5.847761 -88.067435 2.162142 4.544805 -50.866359 -0.000000 0.000002 -0.000003 1.655522 13.617620 -7.488660 -45.044182 23.934436 86.184044 0.000032 109.019272 -0.000021 -8.720693 17.964195 11.204910 -7.341104 13.749658 7.412333 9.855812 -44.489093 -3.903225 -0.115795 -14.513071 -28.973874 0.000001 -0.000001 0.000003 -0.124382 -2.384770 45.108881 4.500589 -4.654552 88.071130 1.723223 -3.618368 50.920095 -0.000002 0.000000 0.000001 -0.761629 -2.932902 39.031058 5.133886 -4.632758 95.881656 1.739743 -3.631701 51.181377 -0.000001 -0.000003 -0.000011 0.154764 -4.068814 39.122678 6.509727 -4.273581 113.462863 2.549588 -4.153920 63.067358 -0.000001 -0.000002 -0.000005 -4.198883 -8.025506 44.637796 4.252911 -4.639640 85.014832 6.935990 -4.062643 119.322285 -0.000003 -0.000002 0.000005 -45.103134 -3.038689 32.295996 48.739523 -15.729762 1.159619 -6.850159 -1.491148 -27.404068 1.874472 0.000001 0.000003 0.000000 -0.000000 0.000000 -14.752862 -9.935908 -46.243051 56.601259 4.791925 -1.045731 -27.838198 -14.772236 32.851755 0.044082 -0.000001 -0.000004 -0.000000 0.000000 -0.000000 
